<svg xmlns="http://www.w3.org/2000/svg" version="1.1" xmlns:xlink="http://www.w3.org/1999/xlink" xmlns:svgjs="http://svgjs.dev/svgjs" width="2000" height="1247" viewBox="0 0 2000 1247"><g transform="matrix(1,0,0,1,-1.2121212121212466,0.5048582995952984)"><svg viewBox="0 0 396 247" data-background-color="#dfdad6" preserveAspectRatio="xMidYMid meet" height="1247" width="2000" xmlns="http://www.w3.org/2000/svg" xmlns:xlink="http://www.w3.org/1999/xlink"><g id="tight-bounds" transform="matrix(1,0,0,1,0.2400000000000091,-0.09999999999999432)"><svg viewBox="0 0 395.52 247.2" height="247.2" width="395.52"><g><svg></svg></g><g><svg viewBox="0 0 395.52 247.2" height="247.2" width="395.52"><g transform="matrix(1,0,0,1,75.54432,64.92258545454544)"><svg viewBox="0 0 244.43135999999998 117.35482909090909" height="117.35482909090909" width="244.43135999999998"><g><svg viewBox="0 0 244.43135999999998 117.35482909090909" height="117.35482909090909" width="244.43135999999998"><g><svg viewBox="0 0 244.43135999999998 117.35482909090909" height="117.35482909090909" width="244.43135999999998"><g id="textblocktransform"><svg viewBox="0 0 244.43135999999998 117.35482909090909" height="117.35482909090909" width="244.43135999999998" id="textblock"><g><svg viewBox="0 0 244.43135999999998 117.35482909090909" height="117.35482909090909" width="244.43135999999998"><g transform="matrix(1,0,0,1,0,0)"><svg width="244.43135999999998" viewBox="2.27 -36.18 77.34 37.13" height="117.35482909090909" data-palette-color="#7530d0"><g class="wordmark-text-0" data-fill-palette-color="primary" id="text-0"><path d="M29.42-17.43L39.21-35.16 37.26-35.16 27.47-17.43 37.11 0 39.06 0 29.42-17.43ZM25.49-17.43L35.28-35.16 33.33-35.16 23.54-17.43 33.18 0 35.13 0 25.49-17.43ZM21.56-17.43L31.35-35.16 29.39-35.16 19.6-17.43 29.25 0 31.2 0 21.56-17.43ZM17.6-17.43L27.42-35.16 25.46-35.16 15.65-17.43 25.32 0 27.27 0 17.6-17.43ZM12.82 0L12.82-35.16 14.58-35.16 14.58 0 12.82 0ZM9.3 0L9.3-35.16 11.06-35.16 11.06 0 9.3 0ZM5.79 0L5.79-35.16 7.54-35.16 7.54 0 5.79 0ZM2.27 0L2.27-35.16 4.03-35.16 4.03 0 2.27 0ZM67.31 0L67.31-17.33Q67.31-20.46 65.38-22.17 63.45-23.88 60.28-23.88L60.28-23.88Q57.59-23.88 55.66-22.02 53.73-20.17 53.73-17.58L53.73-17.58Q53.73-16.11 54.12-14.95 54.51-13.79 55.19-13.02 55.86-12.26 56.78-11.76 57.71-11.25 58.73-11.04 59.74-10.82 60.89-10.82L60.89-10.82Q63.67-10.82 65.96-12.18L65.96-12.18 65.96-10.42Q63.6-9.18 60.86-9.18L60.86-9.18Q59.1-9.18 57.55-9.66 56-10.13 54.73-11.1 53.46-12.06 52.72-13.73 51.98-15.41 51.98-17.58L51.98-17.58Q51.98-20.95 54.34-23.29 56.71-25.63 60.28-25.63L60.28-25.63Q64.21-25.63 66.64-23.43 69.06-21.22 69.06-17.33L69.06-17.33 69.06 0 67.31 0ZM72.58-17.33L72.58-17.33 72.58 0 70.82 0 70.82-17.33Q70.82-21.95 67.87-24.67 64.91-27.39 60.28-27.39L60.28-27.39Q55.98-27.39 53.1-24.54 50.22-21.68 50.22-17.58L50.22-17.58Q50.22-15.09 51.08-13.11 51.95-11.13 53.44-9.94 54.93-8.74 56.77-8.12 58.62-7.5 60.67-7.5L60.67-7.5Q63.45-7.5 65.96-8.79L65.96-8.79 65.96-6.93Q63.33-5.83 60.64-5.83L60.64-5.83Q58.23-5.83 56.05-6.58 53.88-7.32 52.17-8.75 50.46-10.18 49.46-12.46 48.46-14.75 48.46-17.58L48.46-17.58Q48.46-22.39 51.87-25.77 55.27-29.15 60.28-29.15L60.28-29.15Q63.79-29.15 66.57-27.72 69.36-26.29 70.97-23.58 72.58-20.87 72.58-17.33ZM76.1-17.33L76.1-17.33 76.1 0 74.34 0 74.34-17.33Q74.34-21.36 72.5-24.48 70.65-27.59 67.45-29.25 64.26-30.91 60.28-30.91L60.28-30.91Q56.49-30.91 53.37-29.11 50.24-27.32 48.47-24.27 46.7-21.22 46.7-17.58L46.7-17.58Q46.7-14.45 47.85-11.88 49-9.3 50.94-7.64 52.88-5.98 55.36-5.07 57.83-4.15 60.54-4.15L60.54-4.15Q63.3-4.15 65.96-5.3L65.96-5.3 65.96-3.52Q63.18-2.47 60.5-2.47L60.5-2.47Q56.27-2.47 52.73-4.37 49.19-6.27 47.07-9.77 44.94-13.26 44.94-17.58L44.94-17.58Q44.94-20.65 46.13-23.44 47.31-26.22 49.34-28.25 51.36-30.27 54.22-31.47 57.08-32.67 60.28-32.67L60.28-32.67Q64.74-32.67 68.34-30.76 71.95-28.86 74.02-25.34 76.1-21.83 76.1-17.33ZM79.61-17.33L79.61-17.33 79.61 0 77.85 0 77.85-17.33Q77.85-22.31 75.53-26.23 73.22-30.15 69.21-32.29 65.21-34.42 60.28-34.42L60.28-34.42Q55.54-34.42 51.61-32.15 47.68-29.88 45.43-26.01 43.19-22.14 43.19-17.58L43.19-17.58Q43.19-14.58 44.15-11.88 45.11-9.18 46.79-7.17 48.46-5.15 50.64-3.69 52.83-2.22 55.36-1.46 57.88-0.71 60.5-0.71L60.5-0.71Q63.38-0.71 65.96-1.81L65.96-1.81 65.96 0Q63.25 0.95 60.4 0.95L60.4 0.95Q57.44 0.95 54.65 0.12 51.85-0.71 49.47-2.33 47.09-3.96 45.29-6.16 43.48-8.37 42.45-11.33 41.43-14.28 41.43-17.58L41.43-17.58Q41.43-21.36 42.86-24.79 44.28-28.22 46.76-30.73 49.24-33.23 52.77-34.7 56.3-36.18 60.28-36.18L60.28-36.18Q64.33-36.18 67.89-34.81 71.46-33.45 74.05-31.02 76.63-28.59 78.12-25.05 79.61-21.51 79.61-17.33Z" fill="#7530d0" data-fill-palette-color="primary"></path></g></svg></g></svg></g></svg></g></svg></g></svg></g></svg></g><g><path d="M245.816 0c68.262 0 123.6 55.338 123.6 123.6 0 68.262-55.338 123.6-123.6 123.6-41.165 0-77.629-20.124-100.093-51.07l6.617 0c21.645 27.856 55.467 45.779 93.476 45.778 65.34 0 118.308-52.968 118.308-118.308 0-65.34-52.968-118.308-118.308-118.308-38.008 0-71.83 17.923-93.476 45.778l-6.617 0c22.463-30.947 58.928-51.07 100.093-51.07z" fill="#7530d0" stroke="transparent" data-fill-palette-color="tertiary"></path></g></svg></g><defs></defs></svg><rect width="395.52" height="247.2" fill="none" stroke="none" visibility="hidden"></rect></g></svg></g></svg>